<svg xmlns="http://www.w3.org/2000/svg" width="75.332" height="56.499" viewBox="0 0 75.332 56.499"><defs><style>.a{fill:#fafafa;}</style></defs><path class="a" d="M73.565,20.979H64.756l-2.448-6.121A16.4,16.4,0,0,0,47.009,4.5H28.323a16.4,16.4,0,0,0-15.3,10.358l-2.448,6.121H1.767A1.765,1.765,0,0,0,.054,23.173L.937,26.7A1.765,1.765,0,0,0,2.65,28.041H5.6A9.351,9.351,0,0,0,2.354,35.1v7.062a9.34,9.34,0,0,0,2.354,6.169v7.955A4.709,4.709,0,0,0,9.416,61h4.708a4.709,4.709,0,0,0,4.708-4.708V51.583H56.5v4.708A4.709,4.709,0,0,0,61.207,61h4.708a4.709,4.709,0,0,0,4.708-4.708V48.335a9.334,9.334,0,0,0,2.354-6.169V35.1a9.354,9.354,0,0,0-3.247-7.062h2.953A1.765,1.765,0,0,0,74.4,26.7l.883-3.531a1.767,1.767,0,0,0-1.714-2.194Zm-51.8-2.623a7.063,7.063,0,0,1,6.558-4.439H47.009a7.063,7.063,0,0,1,6.558,4.439L56.5,25.687H18.833l2.932-7.332ZM14.124,42.137a4.441,4.441,0,0,1-4.708-4.694,4.441,4.441,0,0,1,4.708-4.694c2.825,0,7.062,4.224,7.062,7.04S16.949,42.137,14.124,42.137Zm47.083,0c-2.825,0-7.062.469-7.062-2.347s4.237-7.04,7.062-7.04a4.441,4.441,0,0,1,4.708,4.694,4.441,4.441,0,0,1-4.708,4.694Z" transform="translate(0 -4.5)"/></svg>