<svg xmlns="http://www.w3.org/2000/svg" width="36.05" height="28.816" viewBox="0 0 36.05 28.816"><defs><style>.a,.b{fill:#fff;}.b{opacity:0.393;}</style></defs><g transform="translate(-903 -387)"><path class="a" d="M14.408,8.1V1.8a1.8,1.8,0,1,1,3.6,0V8.1Zm6.3.9H.9a.9.9,0,0,0-.9.9v1.8a.9.9,0,0,0,.9.9h.9v1.8a9.008,9.008,0,0,0,7.2,8.825v5.583h3.6V23.233a9.008,9.008,0,0,0,7.2-8.825v-1.8h.9a.9.9,0,0,0,.9-.9v-1.8A.9.9,0,0,0,20.712,9.005ZM7.2,8.1V1.8a1.8,1.8,0,0,0-3.6,0V8.1Z" transform="translate(903 387)"/><path class="b" d="M9.625,5.414V1.2a1.2,1.2,0,1,1,2.406,0V5.414Zm4.211.6H.6a.6.6,0,0,0-.6.6v1.2a.6.6,0,0,0,.6.6h.6v1.2a6.018,6.018,0,0,0,4.813,5.9v3.73H8.422v-3.73a6.018,6.018,0,0,0,4.813-5.9v-1.2h.6a.6.6,0,0,0,.6-.6v-1.2A.6.6,0,0,0,13.836,6.016Zm-9.024-.6V1.2a1.2,1.2,0,1,0-2.406,0V5.414Z" transform="translate(924.612 396.566)"/></g></svg>