<svg xmlns="http://www.w3.org/2000/svg" width="26.356" height="28.816" viewBox="0 0 26.356 28.816"><defs><style>.a{fill:#fafafa;}</style></defs><path class="a" d="M7.608,17.68a6.1,6.1,0,0,1,1.377-3.9A5.978,5.978,0,0,1,12.467,11.6,7.592,7.592,0,0,1,19.9,5.64a7.585,7.585,0,0,1,7.351,5.788h.418a6.11,6.11,0,0,1,4.457,1.826,6,6,0,0,1,1.842,4.411,6.1,6.1,0,0,1-.573,2.631,6.332,6.332,0,0,1-1.594,2.12v.046a3.883,3.883,0,0,1-.867,2.461A3.763,3.763,0,0,1,28.764,26.3a4.827,4.827,0,0,1-3.931,3.683,2.706,2.706,0,0,1-2.027,4.473,2.55,2.55,0,0,1-1.9-.8,2.629,2.629,0,0,1-.789-1.919,2.525,2.525,0,0,1,.155-.882h-.155a3.329,3.329,0,0,1-3.3-3.3,3,3,0,0,1,.464-1.656,3.844,3.844,0,0,1-1.733-1.935H13.566v-.015a6.232,6.232,0,0,1-4.225-1.965A5.971,5.971,0,0,1,7.608,17.68Zm2.167-.387a4.439,4.439,0,0,0,4.442,4.457,4.351,4.351,0,0,0,2.12-.526,4.742,4.742,0,0,0,1.61,2.879,4.591,4.591,0,0,0,3.126,1.145,4.685,4.685,0,0,0,3.436-1.424,2.984,2.984,0,0,0,2.383,1.1,3.17,3.17,0,0,0,3.188-3.188,4.453,4.453,0,0,0,1.47-1.61,4.364,4.364,0,0,0,.542-2.12,4.186,4.186,0,0,0-1.315-3.126A4.406,4.406,0,0,0,27.6,13.595a4.357,4.357,0,0,0-2.368.681,5.117,5.117,0,0,0,.124-1.223,5.144,5.144,0,0,0-1.594-3.807,5.5,5.5,0,0,0-7.614-.062,5.107,5.107,0,0,0-1.656,3.668h-.263a4.313,4.313,0,0,0-3.142,1.3A4.268,4.268,0,0,0,9.775,17.293Z" transform="translate(-7.608 -5.64)"/></svg>